<svg xmlns="http://www.w3.org/2000/svg" width="54" height="58" viewBox="0 0 54 58">
    <g fill="none" fill-rule="evenodd">
        <path d="M0 1h60v60H0z"/>
        <path fill="#FED693" d="M19.78 24.512a12.628 12.628 0 0 1-6.853 2.015C5.787 26.527 0 20.589 0 13.263 0 5.938 5.788 0 12.927 0c5.68 0 10.503 3.757 12.239 8.98.346-.276.703-.534 1.069-.772.77-.55 1.622-1.02 2.552-1.342h.001a8.264 8.264 0 0 1 2.321-.455c2.532-.224 4.45.426 5.828 1.263 2.056 1.165 2.837 2.706 2.837 2.706s5.175.373 2.91 11.504c.696.247 1.187 1.227.38 4.154-.992 3.6-1.895 3.798-2.439 3.419-.672 3.877-2.705 8.874-9.26 9.136-6.659-.524-8.768-5.64-9.362-9.579-.532-.043-1.236-.812-1.991-3.553a15.38 15.38 0 0 1-.232-.949zM31.654 58c-8.724 0-16.623-3.624-22.346-9.484.128-2.532.963-5.748 4.233-6.6 5.608-1.464 10.164-4.755 10.164-4.755l4.223 13.701.578 1.858 1.892-5.499c-4.74-6.785 1.256-6.52 1.256-6.52s5.996-.264 1.256 6.521l1.874 5.456.584-1.84.01.03.67-2.172 3.554-11.535s4.557 3.29 10.165 4.754c3.27.853 4.105 4.068 4.233 6.601C48.277 54.376 40.378 58 31.654 58zM3.462 13.125c0-5.363 4.238-9.71 9.465-9.71 5.228 0 9.465 4.347 9.465 9.71 0 5.364-4.237 9.711-9.465 9.711-5.227 0-9.465-4.347-9.465-9.71zm9.465-7.73c4.163 0 7.535 3.462 7.535 7.73 0 4.269-3.372 7.73-7.535 7.73-4.161 0-7.535-3.46-7.535-7.73 0-4.268 3.374-7.73 7.535-7.73zm.597 10.265c.04 0 .08-.008.12-.011.017 0 .034.005.052.005.69 0 1.256-.61 1.256-1.357v-5.65c0-.746-.566-1.356-1.256-1.356-.692 0-1.257.61-1.257 1.357v4.433h-2.88c-.738 0-1.342.58-1.342 1.289s.604 1.29 1.342 1.29h3.965z"/>
    </g>
</svg>
