<svg xmlns="http://www.w3.org/2000/svg" width="50" height="50" viewBox="0 0 50 50">
    <g fill="none" fill-rule="evenodd">
        <path d="M-4-3h60v60H-4z"/>
        <path fill="#FED693" d="M6.733 0C3.03 0 0 3.045 0 6.767v28.442a6.787 6.787 0 0 0 3.474 5.912s1.047.855 3.259.855h14.585v5.11h-11.6V50h31.084v-2.913h-11.6v-5.111h14.065c3.703 0 6.733-3.045 6.733-6.767V6.767C50 3.045 46.97 0 43.267 0H6.733zm36.534 39.269H8.357c-2.764 0-3.414-.441-3.414-.441a4.053 4.053 0 0 1-2.248-3.62V6.767c0-2.24 1.812-4.061 4.04-4.061h36.532c2.227 0 4.04 1.821 4.04 4.06V35.21c0 2.238-1.813 4.06-4.04 4.06zm-25.78-11.693L6.085 21.96v-1.833l11.402-6.36v3.077L9.633 20.91l7.854 3.603v3.064zm12.02-16.142h-3.18L20.07 30.178h3.18l6.256-18.744zm3.006 13.078l7.854-3.603-7.854-4.065v-3.077l11.402 6.36v1.833l-11.402 5.616v-3.064z"/>
    </g>
</svg>
