<svg xmlns="http://www.w3.org/2000/svg" width="60" height="42" viewBox="0 0 60 42">
    <g fill="none" fill-rule="evenodd">
        <path d="M0-4h60v60H0z"/>
        <path fill="#FED693" d="M59.994 8.463v1.393H60v30.049c0 1.16-.955 2.093-2.1 2.093h-.008a2.093 2.093 0 0 1-2.085-2.093v-16.07h-.081a3.479 3.479 0 0 0-2.72-2.721V8.463c0-4.61 1.567-8.39 3.493-8.39h1.393c1.152 0 2.102.948 2.102 2.101v5.59c0 .043-.023.076-.027.119.008.197.027.383.027.58zM9.082 0c.387 0 .7.314.699.694 0 .003-.004.003-.004.008h.004v12.97c0 1.338-1.177 2.459-2.794 2.89v23.264c0 1.157-.948 2.1-2.097 2.1a2.103 2.103 0 0 1-2.096-2.1V16.56C1.178 16.131 0 15.011 0 13.672V.702h.003C.003.697 0 .697 0 .694a.698.698 0 0 1 1.396 0c0 .003-.003.003-.003.008h.003v9.783c0 .378.31.698.697.698.386 0 .7-.32.7-.698V.702h.004c0-.005-.003-.005-.003-.008a.695.695 0 0 1 1.393 0c0 .003-.004.003-.004.008h.004v9.783a.71.71 0 0 0 .703.698c.383 0 .696-.32.696-.698V.702h.008c0-.005-.003-.005-.003-.008 0-.38.31-.694.695-.694a.7.7 0 0 1 .7.694c0 .003-.002.003-.002.008h.003v9.783c0 .378.306.698.694.698.39 0 .7-.32.7-.698V.702h.003c0-.005-.003-.005-.003-.008a.7.7 0 0 1 .7-.694zm20.914 2C41.041 2 50 10.958 49.999 22.003 49.999 33.048 41.04 42 29.996 42s-20-8.952-20-19.997C9.997 10.959 18.952 2 29.997 2zm.003 35.556c8.591 0 15.557-6.959 15.557-15.555 0-8.592-6.966-15.56-15.557-15.56-8.59 0-15.555 6.968-15.555 15.56 0 8.595 6.966 15.555 15.555 15.555zm0-29.313c7.584 0 13.756 6.173 13.755 13.758 0 7.588-6.17 13.752-13.755 13.752-7.582 0-13.754-6.164-13.754-13.752 0-7.585 6.172-13.758 13.754-13.758z"/>
    </g>
</svg>
