<svg xmlns="http://www.w3.org/2000/svg" width="60" height="50" viewBox="0 0 60 50">
    <g fill="none" fill-rule="evenodd">
        <path d="M1 1h60v60H1z"/>
        <path fill="#FED693" d="M9.845 19.394c-2.561 0-4.638-2.102-4.638-4.696 0-2.593 2.077-4.695 4.638-4.695 2.562 0 4.638 2.102 4.638 4.695 0 2.594-2.076 4.696-4.638 4.696zm9.022 15.474l1.437 12.55c.136 1.182-.702 2.252-1.868 2.389a2.139 2.139 0 0 1-2.36-1.892l-1.218-10.643-5.71.005c-.113.007-.227.017-.342.017-2.045.001-4.255-1.393-4.255-3.646L4.55 23.284c0-1.93 1.661-3.218 3.222-3.605l.013-.002s.554-.117 1.051-.129c.52-.011 1.008.137 1.008.137 1.025.255 2.097.906 2.71 1.873.007.01.016.017.023.027 3.193 4.419 3.91 5.206 7.546 3.796.928-.359 1.97.111 2.324 1.05a1.83 1.83 0 0 1-1.037 2.355c-1.493.578-2.769.837-3.883.837-1.828 0-3.227-.693-4.465-1.792v5.133l3.69-.003c1.081 0 1.99.82 2.115 1.907zm-4.57 4.848c0 .69-.381 1.291-.939 1.6a4.31 4.31 0 0 1 .52 2.06v5.096c0 .844-.675 1.527-1.508 1.527a1.518 1.518 0 0 1-1.508-1.527v-5.097c0-.688-.554-1.249-1.234-1.249H4.594c-.68 0-1.234.561-1.234 1.25v5.097c0 .844-.675 1.527-1.508 1.527a1.517 1.517 0 0 1-1.507-1.527v-5.097c0-.759.196-1.472.54-2.092A1.829 1.829 0 0 1 0 39.716V23.434c0-1.006.805-1.823 1.8-1.823s1.801.817 1.801 1.823v14.459h8.894c.995 0 1.801.816 1.801 1.823zm35.856-20.322c-2.561 0-4.638-2.102-4.638-4.696 0-2.593 2.077-4.695 4.638-4.695 2.562 0 4.638 2.102 4.638 4.695 0 2.594-2.076 4.696-4.638 4.696zm1.04 17.9c-.114 0-.23-.01-.342-.019l-5.71-.004-1.218 10.643a2.138 2.138 0 0 1-2.358 1.892c-1.169-.137-2.005-1.206-1.87-2.389l1.437-12.55a2.136 2.136 0 0 1 2.113-1.907h.002l3.69.003v-5.132c-1.239 1.098-2.637 1.791-4.465 1.791-1.115 0-2.39-.257-3.882-.837a1.83 1.83 0 0 1-1.039-2.354 1.795 1.795 0 0 1 2.325-1.05c3.636 1.41 4.353.623 7.546-3.797l.024-.026c.612-.967 1.684-1.619 2.71-1.873 0 0 .487-.149 1.007-.137.497.012 1.051.129 1.051.129l.013.002c1.56.387 3.221 1.674 3.221 3.605v10.364c0 2.253-2.208 3.646-4.255 3.646zM60 39.716a1.83 1.83 0 0 1-.88 1.568c.342.62.538 1.333.538 2.091v5.097c0 .844-.675 1.527-1.508 1.527a1.518 1.518 0 0 1-1.507-1.527v-5.097c0-.688-.554-1.249-1.235-1.249h-5.033c-.682 0-1.234.561-1.234 1.25v5.095c0 .844-.677 1.527-1.509 1.527a1.518 1.518 0 0 1-1.508-1.527v-5.097c0-.744.188-1.446.519-2.058a1.827 1.827 0 0 1-.938-1.6c0-1.007.806-1.823 1.8-1.823H56.4v-14.46c0-1.005.806-1.822 1.801-1.822.994 0 1.8.817 1.8 1.823v16.282zm-18.639-7.969c0 .965-.772 1.747-1.725 1.747H37.27v15.51h-15.28v-15.51h-2.366a1.736 1.736 0 0 1-1.725-1.747c0-.964.772-1.746 1.725-1.746h20.013c.953 0 1.725.782 1.725 1.746zM17.746 12.195a1.314 1.314 0 0 1-1.306-1.322v-9.55c0-.73.584-1.323 1.306-1.323h16.795c.721 0 1.306.592 1.306 1.323v8.315H24.234c-.722 0-1.306.593-1.306 1.322v1.235H20.06l-2.928 2.513 1.03-2.513h-.417zm12.398-7.908c-.695 0-1.257.57-1.257 1.274 0 .704.563 1.274 1.257 1.274.695 0 1.258-.57 1.258-1.274 0-.703-.563-1.274-1.258-1.274zm-3.932 0c-.694 0-1.258.57-1.258 1.274 0 .704.564 1.274 1.258 1.274.695 0 1.258-.57 1.258-1.274 0-.703-.563-1.274-1.258-1.274zm-4.07 0c-.694 0-1.257.57-1.257 1.274 0 .704.563 1.274 1.258 1.274.694 0 1.258-.57 1.258-1.274 0-.703-.564-1.274-1.258-1.274zm1.76 7.66c0-.73.586-1.322 1.307-1.322h16.795c.722 0 1.307.592 1.307 1.322v9.55c0 .73-.585 1.323-1.307 1.323h-.417l1.03 2.512-2.928-2.512h-14.48c-.72 0-1.307-.592-1.307-1.322v-9.55zm13.705 3.208c-.694 0-1.258.57-1.258 1.274 0 .704.563 1.274 1.258 1.274.695 0 1.258-.57 1.258-1.274 0-.703-.563-1.274-1.258-1.274zm-3.932 0c-.694 0-1.258.57-1.258 1.274 0 .704.563 1.274 1.258 1.274.695 0 1.258-.57 1.258-1.274 0-.703-.563-1.274-1.258-1.274zm-4.069 0c-.694 0-1.258.57-1.258 1.274 0 .704.563 1.274 1.258 1.274.695 0 1.258-.57 1.258-1.274 0-.703-.563-1.274-1.258-1.274z"/>
    </g>
</svg>
