<svg xmlns="http://www.w3.org/2000/svg" width="50" height="48" viewBox="0 0 50 48">
    <path fill="#88C542" fill-rule="evenodd" d="M49.971 46.863c-.246-.585-.62-1.164-1.123-1.738-2.025 3.369-20.91 2.14-28.233 0-4.86-1.421-9.732-.478-14.615 2.83a21.898 21.898 0 0 1 3.973-12.568L.808 26.222a2 2 0 0 1 0-2.829l1.414-1.414a2 2 0 0 1 2.828 0l9.005 9.005a21.986 21.986 0 0 1 5.76-3.411C15.713 24.896 13 20.265 13 15c0-8.284 6.716-15 15-15 8.284 0 15 6.716 15 15 0 5.265-2.712 9.896-6.816 12.573 7.764 3.113 13.34 10.524 13.787 19.29zM22 11a4 4 0 1 0 0 8h12a4 4 0 1 0 0-8H22zm2 6a2 2 0 1 1 0-4 2 2 0 0 1 0 4zm8 0a2 2 0 1 1 0-4 2 2 0 0 1 0 4z"/>
</svg>
