<svg xmlns="http://www.w3.org/2000/svg" width="54" height="48" viewBox="0 0 54 48">
    <g fill="none" fill-rule="evenodd">
        <path d="M-3-6h60v60H-3z"/>
        <path fill="#FED693" d="M39.3 16.656c-.84-.428-1.74-1.099-1.8-1.16-1.62-1.342-2.46-3.172-2.46-5.124 0-3.966 3.72-7.139 8.28-7.139 4.56 0 8.28 3.234 8.28 7.139 0 3.904-3.6 7.016-8.04 7.138.06.183.06.427.06.61 0 1.342-1.08 2.44-2.4 2.44-1.32 0-2.4-1.098-2.4-2.44 0-.55.18-1.037.48-1.464zm-11.1-.306c-2.485 0-4.5-2.048-4.5-4.575s2.015-4.576 4.5-4.576 4.5 2.049 4.5 4.576c0 2.527-2.015 4.575-4.5 4.575zm20.88 13.667c-2.717 0-4.92-2.24-4.92-5.003s2.203-5.003 4.92-5.003S54 22.251 54 25.014s-2.203 5.003-4.92 5.003zM4.92 31.115c-2.717 0-4.92-2.24-4.92-5.003s2.203-5.003 4.92-5.003 4.92 2.24 4.92 5.003-2.203 5.003-4.92 5.003zM12 45.635c.3.305.54.671.6.976.12.427.06.793-.18 1.037-.24.305-.66.427-1.26.305-.3-.06-.6-.183-.9-.427l-1.14-.854-2.88-2.257c-.3-.183-.54-.55-.66-.915L3.9 38.314c0-.061-.06-.061-.06-.122-.12-.244-.42-.305-.66-.244-.3.122-.48.427-.36.732l1.68 5.186c.18.61.6 1.159 1.08 1.525l2.34 1.83H.6V35.324c0-1.586 1.26-2.928 2.88-2.928h2.76c1.56 0 2.88 1.281 2.88 2.928v6.223l-.06-.06-1.2-5.797a.553.553 0 0 0-.66-.427c-.3.061-.48.366-.42.671l.06.244 1.2 5.735c0 .122.06.244.18.305L12 45.635zm38.46-14.276c1.62 0 2.88 1.342 2.88 2.928v11.897h-8.58v-4.21l4.02-2.745c.3-.183.36-.55.18-.793-.18-.244-.42-.305-.66-.244 0 0-.06 0-.12.06l-4.44 3.051c-.3.244-.72.305-1.14.305h-5.04c-.36 0-.66-.122-.96-.244-.54-.244-.78-.61-.78-1.037 0-.366.18-.671.48-.915s.72-.427 1.2-.427l4.98-.305c.12 0 .24-.061.36-.122l4.44-3.783.18-.183c.24-.244.24-.61.06-.854a.635.635 0 0 0-.84-.06l-1.86 1.585v-.976c0-1.586 1.26-2.928 2.88-2.928h2.76zm-7.86 11.47c.06 0 .06 0 .12.06.36 0 .66-.06.96-.183v2.136c-4.02 1.952-9.6 3.111-15.78 3.111-5.64 0-10.74-.976-14.64-2.623l-.54-.55-2.4-2.135v-7.26c0-1.22-.54-2.379-1.38-3.111 3.84-3.05 10.92-5.064 18.96-5.064 7.02 0 13.26 1.525 17.28 3.905-.9.793-1.5 1.952-1.5 3.233V36.3l-1.44 1.22-4.8.306c-.72.06-1.38.305-1.86.732-.6.488-.9 1.159-.9 1.83 0 .854.48 1.586 1.38 2.074.48.244.96.366 1.5.366h5.04zM13.32 19.827l5.22 4.698 4.32-5.796c.18-.244.42-.427.66-.55.42-.426 1.02-.67 1.68-.67h.36l1.68 5.002.66-3.477-.48-1.403h1.68l-.42 1.403.72 3.538 1.68-5.002h.36c.54 0 1.08.183 1.5.488.36.183.72.427.96.732l4.5 5.918.48.61c.54.67.66 1.525.36 2.257a41.33 41.33 0 0 0-4.14-.915l.18-.122-1.26-1.647v1.647a50.275 50.275 0 0 0-6.18-.366c-1.86 0-3.6.122-5.34.305v-1.281l-1.08 1.464c-1.98.305-3.9.671-5.64 1.22l-4.56-5.125c-.78-.61-.9-1.769-.3-2.562 0 0 .42-.549.9-.61.18-.061.3-.061.48-.061.36 0 .72.061 1.02.305zm.78-6.65H3.36a.672.672 0 0 1-.66-.671V.67C2.7.305 3 0 3.36 0h16.8c.36 0 .66.305.66.671v11.836c0 .366-.3.671-.66.671h-2.04c.06.915.3 1.525.36 1.708.06.122.12.244.12.366 0 .366-.3.671-.66.671h-.06c-1.98-.122-3.18-1.647-3.78-2.745zM6.84 6.65c0 .55.48.915.96.915s.96-.427.96-.976c0-.55-.42-.915-.96-.915s-.96.427-.96.976zm4.8-.976c-.54 0-.96.427-.96.976 0 .55.42.976.96.976s.96-.427.96-.976c0-.55-.48-.976-.96-.976zm3.9 1.891c.54 0 .96-.427.96-.976 0-.55-.42-.976-.96-.976s-.96.427-.96.976c0 .55.48.976.96.976zm26.34 17.449c-.96 0-1.74-.793-1.74-1.77 0-.976.78-1.769 1.74-1.769s1.74.793 1.74 1.77c0 .976-.78 1.769-1.74 1.769zm5.34-13.483c.54 0 .96-.427.96-.976 0-.55-.42-.977-.96-.977s-.96.428-.96.977c0 .549.42.976.96.976zm-3.9 0c.54 0 .96-.427.96-.976 0-.55-.42-.977-.96-.977s-.96.428-.96.977c0 .549.42.976.96.976zm-3.84 0c.54 0 .96-.427.96-.976 0-.55-.42-.977-.96-.977s-.96.428-.96.977c0 .549.42.976.96.976z"/>
    </g>
</svg>
