<svg xmlns="http://www.w3.org/2000/svg" width="52" height="52" viewBox="0 0 52 52">
    <g fill="none" fill-rule="evenodd">
        <path d="M-4 0h60v60H-4z"/>
        <path fill="#FED693" d="M26 10.574c-8.37 0-15.155 6.787-15.155 15.155 0 8.369 6.785 15.154 15.155 15.154s15.154-6.786 15.154-15.154c0-8.367-6.783-15.155-15.154-15.155zm7.613 18.044h-7.975c-.082 0-.16-.016-.24-.022-.036 0-.07.01-.105.01-1.39 0-2.527-1.197-2.527-2.66V14.873c0-1.465 1.138-2.66 2.527-2.66 1.39 0 2.527 1.196 2.527 2.66v8.69h5.794c1.483 0 2.697 1.137 2.697 2.527 0 1.39-1.215 2.53-2.698 2.53zM26 0C11.64 0 0 11.64 0 26s11.64 26 26 26 26-11.64 26-26S40.36 0 26 0zm0 44.766c-10.514 0-19.036-8.523-19.036-19.037S15.486 6.693 26 6.693c10.514 0 19.036 8.522 19.036 19.036 0 10.514-8.522 19.037-19.036 19.037z"/>
    </g>
</svg>
