<svg xmlns="http://www.w3.org/2000/svg" width="42" height="50" viewBox="0 0 42 50">
    <g fill="none" fill-rule="evenodd">
        <path d="M-8-4h60v60H-8z"/>
        <path fill="#FED693" d="M33.61 36.354C33.434 43.489 41.997 50 42 50H12.484s5.615-2.654 3.287-7.834c-1.035.174-4.002.687-6.317.977-2.309.287-4.324-1.035-4.75-2.128-.425-1.093.827-3.054.307-3.683-.52-.63-2.268-2.433-1.657-3.991.612-1.552.307-2.35.307-2.35S.32 30.365.013 29.215c-.301-1.15 4.566-8.231 4.566-8.231s-1.03-1.729-1.277-2.65c-.243-.921-.003-5.872 3.168-11.518C9.633 1.173 16.875-.842 26.555.312c9.676 1.15 15.374 10.39 15.396 15.947.048 11.053-8.23 16.112-8.34 20.095zm-1.26-6.607l.973.61 1.006-1.45-.973-.604c.243-.559.367-1.17.356-1.8l1.144-.225-.383-1.698-1.137.225a4.576 4.576 0 0 0-1.089-1.51l.64-.922-1.536-.949-.64.92a4.993 4.993 0 0 0-1.895-.335l-.24-1.085-1.79.354.236 1.084a4.935 4.935 0 0 0-1.606 1.029l-.97-.603-1.006 1.454.98.603a4.282 4.282 0 0 0-.36 1.795l-1.147.226.38 1.698 1.144-.226c.258.579.633 1.09 1.09 1.51l-.637.92 1.532.95.64-.922c.59.232 1.234.35 1.897.34l.241 1.08 1.794-.354-.238-1.083a4.732 4.732 0 0 0 1.594-1.032zM20.71 17.938a7.499 7.499 0 0 0 2.438 1.659l-.406 1.666 2.776.61.41-1.672c.99.04 1.998-.12 2.963-.469l.96 1.46 2.418-1.431-.959-1.458a7.071 7.071 0 0 0 1.75-2.314l1.764.383.644-2.623-1.77-.39a6.694 6.694 0 0 0-.497-2.807l1.54-.911-1.512-2.286-1.536.911a7.662 7.662 0 0 0-2.445-1.655l.41-1.668-2.779-.61-.407 1.674a7.862 7.862 0 0 0-2.97.47l-.962-1.46-2.413 1.43.962 1.461a7.153 7.153 0 0 0-1.75 2.312l-1.772-.382-.636 2.622 1.765.39c-.036.938.126 1.89.5 2.802l-1.54.913 1.51 2.286 1.543-.913zm8.176 11.747c-1.818 0-3.292-1.394-3.292-3.114s1.474-3.113 3.292-3.113c1.818 0 3.292 1.394 3.292 3.113 0 1.72-1.474 3.114-3.292 3.114zm-2.684-11.744c-2.825 0-5.115-2.166-5.115-4.838s2.29-4.838 5.115-4.838 5.115 2.166 5.115 4.838-2.29 4.838-5.115 4.838z"/>
    </g>
</svg>
