<svg xmlns="http://www.w3.org/2000/svg" width="54" height="50" viewBox="0 0 54 50">
    <g fill="none" fill-rule="evenodd">
        <path d="M-3-5h60v60H-3z"/>
        <path fill="#FED693" d="M41.742 0H12.258c-2.7 0-4.914 2.255-4.914 5.006v39.988c0 2.75 2.214 5.006 4.914 5.006 2.7 0 4.914-2.255 4.914-5.006h19.656c0 2.75 2.214 5.006 4.914 5.006 2.7 0 4.914-2.255 4.914-5.006V5.006c0-2.75-2.214-5.006-4.914-5.006zM15.93 40.044c-2.052 0-3.672-1.705-3.672-3.74 0-2.036 1.674-3.74 3.672-3.74 1.998 0 3.672 1.704 3.672 3.74 0 2.035-1.62 3.74-3.672 3.74zm22.14 0c-2.052 0-3.672-1.705-3.672-3.74 0-2.036 1.674-3.74 3.672-3.74 1.998 0 3.672 1.704 3.672 3.74 0 2.035-1.674 3.74-3.672 3.74zm3.672-12.541H12.258V10.01h29.43v17.492h.054zM0 12.54h4.914v10.011H0v-10.01zm49.086 0H54v10.011h-4.914v-10.01z"/>
    </g>
</svg>
