<svg xmlns="http://www.w3.org/2000/svg" width="46" height="46" viewBox="0 0 46 46">
    <g fill="none" fill-rule="evenodd">
        <path d="M-7 0h60v60H-7z"/>
        <path fill="#FED693" d="M35.854 3.87H46V46H0V3.87h10.199v4.728h3.47V3.87h18.715V8.6h3.47v-4.73zm4.889 36.595v-26.44H6.046v26.44h34.697zM10.199 0h3.47v3.87h-3.47V0zm22.185 0h3.47v3.87h-3.47V0zm-8.57 24.988c1.63 0 2.945.484 3.891 1.398.946.913 1.472 2.203 1.472 3.869 0 1.934-.578 3.439-1.735 4.46-1.156 1.021-2.839 1.558-4.994 1.558-1.893 0-3.417-.322-4.574-.913v-3.17c.631.322 1.315.59 2.156.805a8.874 8.874 0 0 0 2.313.323c2.208 0 3.26-.914 3.26-2.74 0-1.774-1.157-2.634-3.418-2.634-.42 0-.841.054-1.367.107-.473.108-.893.162-1.209.27l-1.42-.807.632-8.76h9.2v3.117h-6.046l-.316 3.386.421-.107c.473-.108 1.051-.162 1.735-.162z"/>
    </g>
</svg>
