<svg xmlns="http://www.w3.org/2000/svg" width="121" height="35" viewBox="0 0 121 35">
    <g fill="none" fill-rule="evenodd">
        <path fill="#FFF" d="M31.982 30.29a4.04 4.04 0 0 0-.705-1.087c-1.27 2.106-13.12 1.338-17.715 0-3.05-.888-6.106-.298-9.17 1.77a13.65 13.65 0 0 1 2.493-7.856L1.578 17.83a1.871 1.871 0 0 1 0-2.652 1.886 1.886 0 0 1 2.662 0l5.206 5.186a13.807 13.807 0 0 1 3.615-2.132 9.358 9.358 0 0 1-4.277-7.858C8.784 5.197 12.998 1 18.196 1s9.412 4.197 9.412 9.375a9.358 9.358 0 0 1-4.277 7.858c4.872 1.946 8.37 6.578 8.65 12.056zM14.422 7.874a2.5 2.5 0 0 0 0 5h7.549a2.5 2.5 0 1 0 0-5h-7.55zm1.264 3.75c-.693 0-1.255-.56-1.255-1.25s.562-1.25 1.255-1.25c.693 0 1.255.56 1.255 1.25s-.562 1.25-1.255 1.25zm5.02 0c-.693 0-1.255-.56-1.255-1.25s.562-1.25 1.255-1.25c.693 0 1.255.56 1.255 1.25s-.562 1.25-1.255 1.25z"/>
        <path fill="#88C542" d="M46.86 10.352h-4.5V15h-2.344V3.625h7.406v1.898h-5.063v2.938h4.5v1.89zm6.132.484h-1.867V15h-2.344V3.625h4.227c1.344 0 2.38.3 3.11.898.728.6 1.093 1.446 1.093 2.54 0 .776-.168 1.423-.504 1.94-.336.52-.845.932-1.527 1.24l2.46 4.648V15h-2.515l-2.133-4.164zm-1.867-1.899h1.89c.59 0 1.045-.15 1.368-.449.323-.3.484-.712.484-1.238 0-.536-.152-.958-.457-1.266-.305-.307-.772-.46-1.402-.46h-1.883v3.413zm17.21.633c0 1.12-.197 2.102-.593 2.946-.396.843-.962 1.494-1.699 1.953-.737.458-1.582.687-2.535.687-.943 0-1.784-.226-2.524-.68-.74-.453-1.312-1.1-1.718-1.94-.407-.842-.612-1.81-.618-2.903V9.07c0-1.12.202-2.105.606-2.957.404-.851.974-1.505 1.71-1.96.738-.456 1.58-.684 2.528-.684s1.79.228 2.528.683c.737.456 1.307 1.11 1.71 1.961.404.852.606 1.835.606 2.95v.507zm-2.374-.515c0-1.193-.214-2.1-.64-2.72-.428-.619-1.037-.929-1.829-.929-.786 0-1.393.306-1.82.918-.427.612-.643 1.51-.649 2.692v.554c0 1.162.214 2.063.641 2.703.427.641 1.042.961 1.844.961.786 0 1.39-.308 1.812-.925.422-.618.636-1.517.64-2.7v-.554zM79.289 15h-2.344l-4.562-7.484V15h-2.344V3.625h2.344l4.57 7.5v-7.5h2.336V15zm10.383-9.477h-3.484V15h-2.344V5.523h-3.438V3.625h9.266v1.898zm8.18 4.547h-4.5v3.047h5.28V15h-7.624V3.625h7.61v1.898h-5.266v2.711h4.5v1.836zM109.258 15h-2.344l-4.562-7.484V15h-2.344V3.625h2.344l4.57 7.5v-7.5h2.336V15zm2.047 0V3.625h3.5c1 0 1.894.225 2.683.676a4.712 4.712 0 0 1 1.848 1.922c.443.83.664 1.774.664 2.832v.523c0 1.057-.217 1.998-.652 2.82a4.672 4.672 0 0 1-1.84 1.915c-.792.453-1.685.682-2.68.687h-3.523zm2.343-9.477v7.594h1.133c.917 0 1.617-.3 2.102-.898.484-.6.732-1.456.742-2.57v-.602c0-1.156-.24-2.033-.719-2.629-.479-.596-1.18-.895-2.101-.895h-1.157z"/>
        <path fill="#88C542" d="M49.266 31h-2.344l-4.563-7.484V31h-2.343V19.625h2.343l4.57 7.5v-7.5h2.337V31zm12.739 0H59.66V19.625h2.344V31zm19.622 0h-2.344l-4.563-7.484V31h-2.343V19.625h2.343l4.57 7.5v-7.5h2.337V31zm14.832-11.375h2.344V27.5c0 .724-.16 1.363-.48 1.918a3.26 3.26 0 0 1-1.356 1.285c-.583.302-1.242.453-1.976.453-1.204 0-2.141-.306-2.813-.918-.672-.612-1.008-1.478-1.008-2.597h2.36c0 .557.117.968.351 1.234.235.266.604.398 1.11.398.448 0 .804-.153 1.07-.46.266-.308.398-.745.398-1.313v-7.875zm18.974 9.031h-4.11l-.78 2.344h-2.493l4.234-11.375h2.172L118.714 31h-2.492l-.79-2.344zm-3.477-1.898h2.844l-1.43-4.258-1.414 4.258z" opacity=".7"/>
    </g>
</svg>
