<svg xmlns="http://www.w3.org/2000/svg" width="51" height="48" viewBox="0 0 51 48">
    <path fill="#FFF" fill-rule="evenodd" d="M50.828 46.218a8.277 8.277 0 0 0-.424-.546c-2.048 3.535-21.156 2.246-28.564 0-4.6-1.395-9.21-.618-13.828 2.328H6.988c0-4.474 1.332-8.636 3.622-12.11l-9.217-9.216a2 2 0 0 1 0-2.828l1.427-1.428a2 2 0 0 1 2.829 0l8.937 8.938a21.946 21.946 0 0 1 6.19-3.783A14.995 14.995 0 0 1 13.974 15c0-8.284 6.702-15 14.97-15 8.267 0 14.97 6.716 14.97 15 0 5.265-2.707 9.896-6.803 12.573 7.558 3.036 13.039 10.162 13.717 18.645zM22.964 11a4 4 0 1 0 0 8h11.96a4 4 0 1 0 0-8h-11.96zm1.988 6a1.998 1.998 0 0 1-1.996-2c0-1.105.893-2 1.996-2 1.102 0 1.996.895 1.996 2s-.894 2-1.996 2zm7.984 0a1.998 1.998 0 0 1-1.996-2c0-1.105.893-2 1.996-2 1.102 0 1.996.895 1.996 2s-.894 2-1.996 2z" opacity=".3"/>
</svg>
